<svg xmlns="http://www.w3.org/2000/svg" xmlns:xlink="http://www.w3.org/1999/xlink" viewBox="0 0 50.68 33.84"><defs><style>.cls-1,.cls-2{stroke:#fff;stroke-miterlimit:10;}.cls-1{fill:url(#linear-gradient);}.cls-2{fill:url(#linear-gradient-2);}</style><linearGradient id="linear-gradient" x1="2.81" y1="-1.72" x2="22.92" y2="39.94" gradientUnits="userSpaceOnUse"><stop offset="0" stop-color="#45c1c5"/><stop offset="0.15" stop-color="#41b8bf"/><stop offset="0.4" stop-color="#359eb0"/><stop offset="0.71" stop-color="#237598"/><stop offset="0.99" stop-color="#0f4a7e"/></linearGradient><linearGradient id="linear-gradient-2" x1="48.9" y1="-1.35" x2="2.58" y2="29.27" gradientUnits="userSpaceOnUse"><stop offset="0" stop-color="#45c1c5"/><stop offset="0.17" stop-color="#3fb8c1"/><stop offset="0.45" stop-color="#2d9eb5"/><stop offset="0.8" stop-color="#1275a3"/><stop offset="0.99" stop-color="#005b97"/></linearGradient></defs><g id="Layer_1" data-name="Layer 1"><polygon class="cls-1" points="20.5 22.38 1.34 2.34 1.34 30.39 5.31 30.39 5.31 12.01 24.46 31.99 24.46 8 20.5 8 20.5 22.38"/><path class="cls-2" d="M45,5.06a15.56,15.56,0,0,0-5-2.9,17.74,17.74,0,0,0-6.57-1.08c-4.88,0-15.33,0-29.19.1L7.86,5c6.4,0,10.19,0,12.5,0,2.1,0,4,0,6.17,0,1.24,0,2.8,0,5.09,0,1.32,0,2,0,2.28,0,1.58.11,5.29.38,8,2.54,3.62,2.88,3.55,7.57,3.53,8.92a12.63,12.63,0,0,1-3.32,8.33,10,10,0,0,1-3.44,2.45,12.46,12.46,0,0,1-5,.75c-.5,0-1.23,0-2.11-.06q0-10,0-20h-4V32h5.86A19.87,19.87,0,0,0,40,31.12a13.08,13.08,0,0,0,4.8-3.06,15.33,15.33,0,0,0,4.55-11.53C49.33,14.82,49.38,9,45,5.06Z"/></g></svg>